<svg id="Capa_1" enable-background="new 0 0 512 512" height="512" viewBox="0 0 512 512" width="512" xmlns="http://www.w3.org/2000/svg"><path d="m255.997 64.104c-4.142 0-7.5-3.358-7.5-7.5v-21.018c0-4.142 3.358-7.5 7.5-7.5s7.5 3.358 7.5 7.5v21.018c0 4.143-3.358 7.5-7.5 7.5z" fill="#7a6d79"/><path d="m256 512c-14.671 0-26.564-11.893-26.564-26.564v-58.147h53.129v58.147c-.001 14.671-11.894 26.564-26.565 26.564z" fill="#433f43"/><path d="m282.562 427.289v30.999c-8.41 2.518-17.326 3.87-26.562 3.87s-18.152-1.352-26.562-3.87v-30.999z" fill="#383538"/><circle cx="256" cy="17.793" fill="#e94444" r="17.793"/><path d="m225.503 208.392h60.995v36.458h-60.995z" fill="#7a6d79"/><path d="m225.503 214.96h60.995v12.537h-60.995z" fill="#685e68"/><path d="m341.107 112.331c-5.632-13.35-13.767-23.78-22.802-31.916-35.258-31.748-89.352-31.748-124.61 0-9.035 8.135-17.17 18.565-22.802 31.916 0 0-24.354 54.649 14.145 87.264 11.925 10.102 27.209 15.365 42.838 15.365h28.124 28.124c15.629 0 30.913-5.263 42.838-15.365 38.499-32.615 14.145-87.264 14.145-87.264z" fill="#e2dee2"/><path d="m326.966 199.596c-11.924 10.097-27.217 15.362-42.845 15.362h-56.242c-15.627 0-30.92-5.265-42.845-15.362-1.375-1.159-2.662-2.357-3.88-3.585 9.223 4.567 19.507 6.915 29.938 6.915h56.242c15.627 0 30.911-5.265 42.845-15.362 38.493-32.62 14.144-87.271 14.144-87.271-5.628-13.319-13.732-23.731-22.739-31.854 5.903 3.3 11.512 7.288 16.717 11.973 9.036 8.143 17.169 18.564 22.807 31.922.002.001 24.351 54.642-14.142 87.262z" fill="#cbc4cc"/><path d="m256 443.876c-46.936 0-84.986-38.049-84.986-84.986v-118.859h169.971v118.859c.001 46.936-38.049 84.986-84.985 84.986z" fill="#e2dee2"/><path d="m340.987 240.034v118.861c0 46.932-38.055 84.977-84.987 84.977-17.252 0-33.306-5.145-46.708-13.99 7.647 2.268 15.744 3.476 24.119 3.476 46.943 0 84.988-38.055 84.988-84.987v-108.337z" fill="#cbc4cc"/><path d="m287.899 370.918h-63.798c-4.142 0-7.5-3.358-7.5-7.5s3.358-7.5 7.5-7.5h63.798c4.142 0 7.5 3.358 7.5 7.5s-3.358 7.5-7.5 7.5z" fill="#7a6d79"/><path d="m274.28 393.374h-36.56c-4.142 0-7.5-3.358-7.5-7.5s3.358-7.5 7.5-7.5h36.56c4.142 0 7.5 3.358 7.5 7.5s-3.358 7.5-7.5 7.5z" fill="#7a6d79"/><path d="m293.384 335.201h-74.768c-3.462 0-6.268-2.806-6.268-6.268v-43.509c0-3.462 2.806-6.268 6.268-6.268h74.768c3.462 0 6.268 2.806 6.268 6.268v43.509c0 3.462-2.806 6.268-6.268 6.268z" fill="#c0d6f2"/><path d="m304.649 159.119h-97.299c-4.603 0-8.335-3.732-8.335-8.335v-27.869c0-4.603 3.732-8.335 8.335-8.335h97.299c4.603 0 8.335 3.732 8.335 8.335v27.869c0 4.604-3.731 8.335-8.335 8.335z" fill="#c0d6f2"/><path d="m411.2 313.601s12.19 42.55-5.398 72.021l-23.125-3.595s8.839-39.564-1.819-55.834z" fill="#e2dee2"/><path d="m405.805 385.62-11.238-1.744c11.114-23.776 6.666-53.196 4.138-65.084l12.497-5.19c0-.001 12.187 42.546-5.397 72.018z" fill="#cbc4cc"/><path d="m376.383 369.791c15.669-2.11 31.608.603 45.696 7.778 9.682 6.115 13.856 18.108 10.064 28.913l-4.977 14.181c-1.689 4.813-6.5 7.988-11.549 7.257-6.668-.965-10.703-7.819-8.373-14.092l2.606-7.013c1.211-3.258-.334-6.895-3.519-8.286-6.926-3.025-14.486-4.312-22.022-3.749-3.466.259-6.127 3.18-6.062 6.655l.133 7.164c.118 6.362-4.999 11.519-11.342 11.012-5.54-.443-9.711-5.048-9.713-10.497l-.005-15.368c-.004-11.452 7.903-21.387 19.063-23.955z" fill="#433f43"/><path d="m368.683 227.674s30.274 37.711 37.731 71.417l-28.563 16.282s-16.659-35.376-35.045-47.447z" fill="#e2dee2"/><path d="m406.414 299.092-14.416 8.224c-7.058-25.055-24.23-51.08-33.445-63.887l10.133-15.758c.001.002 30.267 37.719 37.728 71.421z" fill="#cbc4cc"/><circle cx="351.162" cy="244.85" fill="#433f43" r="24.539"/><circle cx="394.408" cy="313.763" fill="#433f43" r="20.945"/><path d="m100.8 313.601s-12.19 42.55 5.398 72.021l23.125-3.595s-8.839-39.564 1.819-55.834z" fill="#e2dee2"/><path d="m135.617 369.791c-15.669-2.11-31.608.603-45.696 7.778-9.682 6.115-13.856 18.108-10.064 28.913l4.977 14.181c1.689 4.813 6.5 7.988 11.549 7.257 6.668-.965 10.703-7.819 8.373-14.092l-2.606-7.013c-1.211-3.258.334-6.895 3.519-8.286 6.926-3.025 14.486-4.312 22.022-3.749 3.466.259 6.127 3.18 6.062 6.655l-.133 7.164c-.118 6.362 4.999 11.519 11.342 11.012 5.54-.443 9.711-5.048 9.713-10.497l.005-15.368c.004-11.452-7.903-21.387-19.063-23.955z" fill="#433f43"/><path d="m143.317 227.674s-30.274 37.711-37.731 71.417l28.563 16.282s16.659-35.376 35.045-47.447z" fill="#e2dee2"/><circle cx="160.838" cy="244.85" fill="#433f43" r="24.539"/><circle cx="117.592" cy="313.763" fill="#433f43" r="20.945"/><g fill="#7a6d79"><path d="m228.82 147.274c-4.142 0-7.5-3.358-7.5-7.5v-6.088c0-4.142 3.358-7.5 7.5-7.5s7.5 3.358 7.5 7.5v6.088c0 4.143-3.358 7.5-7.5 7.5z"/><path d="m283.18 147.274c-4.142 0-7.5-3.358-7.5-7.5v-6.088c0-4.142 3.358-7.5 7.5-7.5s7.5 3.358 7.5 7.5v6.088c0 4.143-3.358 7.5-7.5 7.5z"/></g></svg>